<?xml version="1.0" encoding="utf-8"?>
<svg id="Logo-Animation" class="LogoAnimation" viewBox="0 0 1400 980" version="1.1" xmlns="http://www.w3.org/2000/svg" x="0px" y="0px" style="enable-background:new 0 0 1400 980;" width="100%" height="auto">
<style>
        :root {
            --speed: 1.2s;
            --fadeout: 1.2;
        }
        #svg_5 {     animation: showme1 var(--speed) ease-in infinite calc(var(--speed) / (var(--fadeout)/0.07) );    }
        #path-6 {     animation: showme2 var(--speed) ease-in infinite calc(var(--speed) / (var(--fadeout)/0.14) );    }
        #path0 {     animation: showme3 var(--speed) ease-in infinite calc(var(--speed) / (var(--fadeout)/0.21) );     }
        #path-1 {     animation: showme4 var(--speed) ease-in infinite calc(var(--speed) / (var(--fadeout)/0.28) );    }
        #path-2 {     animation: showme5 var(--speed) ease-in infinite calc(var(--speed) / (var(--fadeout)/0.35) );     }
        #path-3 {     animation: showme6 var(--speed) ease-in infinite calc(var(--speed) / (var(--fadeout)/0.42) );     }
        #path-4 {     animation: showme7 var(--speed) ease-in infinite calc(var(--speed) / (var(--fadeout)/0.47) );     }
        #path-5 {     animation: showme8 var(--speed) ease-in infinite calc(var(--speed) / (var(--fadeout)/0.52) );     }

        @keyframes showme1 {        5% {opacity: 0;        }        10% {opacity: 1;        }   85% {opacity: 1;        }        100% {opacity: 0;        }    }
        @keyframes showme2 {        10% {opacity: 0;        }        15% {opacity: 1;        }  80% {opacity: 1;        }        100% {opacity: 0;        }    }
        @keyframes showme3 {        15% {opacity: 0;        }        20% {opacity: 1;        }  75% {opacity: 1;        }        100% {opacity: 0;        }    }
        @keyframes showme4 {        20% {opacity: 0;        }        25% {opacity: 1;        }  70% {opacity: 1;        }        100% {opacity: 0;        }    }
        @keyframes showme5 {        25% {opacity: 0;        }        30% {opacity: 1;        }  65% {opacity: 1;        }        100% {opacity: 0;        }    }
        @keyframes showme6 {        30% {opacity: 0;        }        35% {opacity: 1;        }  60% {opacity: 1;        }        100% {opacity: 0;        }    }
        @keyframes showme7 {        35% {opacity: 0;        }        40% {opacity: 1;        }  55% {opacity: 1;        }        100% {opacity: 0;        }    }
        @keyframes showme8 {        40% {opacity: 0;        }        45% {opacity: 1;        }  50% {opacity: 1;        }        100% {opacity: 0;        }    }
    #path0, #path-1, #path-2, #path-3, #path-4, #path-5,#path-6, #svg_5{
            opacity: 0;
        }
</style>
<g transform="matrix(1, 0, 0, 1, 0.000013883356587029994, -0.0000015613400137226563)">
<g transform="matrix(1, 0, 0, 1, 0.00007344265395659022, 0.000002481499450368574)">
<g transform="matrix(1.2394301891326907,0,0,1.2394301891326907,159.32027253266665,87.61769190910803) ">
<g id="svg_1">
<title>background</title>
<path height="982" width="1402" y="-1" x="-1" id="canvas_background" fill="none" d="m-1,-1l582,0l0,402l-582,0l0,-402z"/>
</g>
<g id="svg_2">
<title transform="translate(0,0.8068223595619202) translate(0.8068223595619202,0) translate(-0.8068223595619202,-0.8068223595619202) ">Layer 1</title>
<path id="path1" d="M 104.45306 165.75112 C 101.21184 166.50718999999998 96.85564 167.72598 94.77183 168.45932 C 91.33496 169.66571 89.64716999999999 170.523 82.98558 174.43552 C 51.030680000000004 193.20283 50.93167 239.3041 82.80171 259.73847 C 98.84988 270.02796 103.0505 270.55885 168.43592999999998 270.56712 L 219.791 270.57331 L 220.88712999999998 272.59774 C 221.48823 273.70912 223.67810999999998 278.22897 225.75249 282.6414 C 227.82686999999999 287.05177 230.21005 292.03229 231.04924 293.70761 C 231.88842 295.38293 233.82608 299.40907 235.35829 302.65436 C 236.8905 305.90171 238.67023 309.63245 239.31376 310.94626999999997 C 241.27028 314.93523 247.38734 327.68913999999995 254.62411 342.86411999999996 C 258.39571 350.77592999999996 261.81844 357.91308999999995 262.23095 358.72491999999994 C 265.85876 365.88066999999995 266.72623 367.66340999999994 267.89071 370.37573999999995 C 268.62618000000003 372.08410999999995 269.88731 374.80882999999994 270.69349 376.43251 C 271.50202 378.05411999999995 274.53816 384.36291 277.4423 390.4486 C 285.10571999999996 406.50358 284.96193 406.21644 288.16778999999997 411.8456 C 300.10961999999995 432.81293 319.79503 449.8822 344.80782 460.96493 C 354.54798 465.27821 368.92014 469.00275 382.80199 470.80821 C 397.88604 472.77067 765.3979999999999 472.55789999999996 774.7445 470.58097999999995 C 840.36095 456.69915999999995 939.2055002539063 375.34799 872.5424402539063 366.47353999999996 C 869.0772802539063 366.01287999999994 702.33446 365.74432999999993 595.2139000000001 365.74019999999996 C 405.93370000000004 365.734 420.6052300000001 366.12855999999994 407.9632900000001 360.70597999999995 C 403.2393600000001 358.67947999999996 390.7200000000001 348.60276999999996 388.4971100000001 345.03934999999996 C 384.47093000000007 338.57975999999996 379.58670000000006 329.32314999999994 374.7024800000001 318.88699999999994 C 372.9934700000001 315.23475999999994 370.6810100000001 310.49386999999996 369.56603000000007 308.35168999999996 C 368.45105000000007 306.20950999999997 367.53879000000006 304.27804 367.53879000000006 304.06112999999993 C 367.53879000000006 303.8442299999999 366.59118000000007 301.85284999999993 365.43377000000004 299.6342399999999 C 364.27636 297.41768999999994 363.33110000000005 295.4696899999999 363.33110000000005 295.3064999999999 C 363.33110000000005 295.1453699999999 362.25384 292.91435999999993 360.93849000000006 290.3487099999999 C 359.62550000000005 287.7851099999999 357.30361000000005 283.0297699999999 355.78082000000006 279.7844799999999 C 354.25804000000005 276.5391899999999 352.3533800000001 272.5543599999999 351.54956000000004 270.9306899999999 C 350.74338000000006 269.30907999999994 347.71667 263.0002799999999 344.82432000000006 256.9145899999999 C 341.92962000000006 250.82683999999992 339.06556000000006 244.8506299999999 338.45974000000007 243.63390999999993 C 337.8515700000001 242.41717999999992 335.2279500000001 236.93881999999994 332.62790000000007 231.46045999999993 C 330.02785000000006 225.98209999999992 327.57867000000005 220.83632999999992 327.18030000000005 220.02448999999993 C 326.78428 219.21471999999994 325.80837 217.22126999999992 325.01398000000006 215.59965999999991 C 315.3869700000001 195.94407999999993 300.44907000000006 181.70694999999992 280.07770000000005 172.77052999999992 C 275.96430000000004 170.9650699999999 272.17148000000003 169.48805999999993 271.64817000000005 169.48805999999993 C 271.12722 169.48805999999993 270.04288 169.16992999999994 269.23906000000005 168.77950999999993 C 268.4352400000001 168.38907999999992 264.5575600000001 167.31901999999994 260.62095000000005 166.39976999999993 C 250.28912000000005 163.98697999999993 114.43602000000004 163.42302999999993 104.45306000000005 165.75111999999993" fill="#545b6c" fill-rule="evenodd" stroke-width="90"/>
<path id="path0" d="M 479.013058 149.75156099999998 L 479.013058 189.75062099999997 L 479.013058 229.74967099999998 L 484.168368 234.81075099999998 L 535.902958 234.81075099999998 L 587.637548 234.81075099999998 L 593.087508 229.702161 L 593.087508 189.624611 C 593.087508 161.280501 593.6967014960937 150.1171690517578 593.6967014960937 150.1171690517578 L 589.2404779999999 145.17387099999996 L 536.4191979999999 145.17387099999996 L 483.59790799999996 145.17387099999996" fill="#2494ec" fill-rule="evenodd" transform="matrix(1, 0, 0, 1, 0.8068224704676368, 0)"/>
<path id="svg_3" fill=" rgb(36, 148, 236)" d="M 386.04492 183.01259 L 386.04492 183.01259"/>
<path id="svg_4" fill=" rgb(36, 148, 236)"/>
<path id="svg_5" d="M 380.3591640000001 251.48391400000003 C 380.3591640000001 252.295744 407.8871440000001 308.29194400000006 408.2760840000001 308.29194400000006 C 408.6650340000001 308.29194400000006 429.89208400000007 337.0636640000001 437.31506400000006 337.0636640000001 C 437.86194400000005 337.0636640000001 450.37423400000006 340.7675540000001 452.8281340000001 340.2593740000001 C 453.9501840000001 340.0280140000001 455.9067040000001 338.8381440000001 457.1819740000001 337.61315400000007 L 459.49680400000005 335.3883440000001 L 459.49680400000005 295.96976400000005 C 459.49680400000005 254.34703400000006 459.5392340000001 254.83248400000005 455.4729740000001 251.66776400000006 L 453.34201400000006 250.00896400000005 L 416.8494140000001 250.00896400000005 C 380.9201940000001 250.00896400000005 380.3591640000001 250.03169400000004 380.3591640000001 251.48391400000006" fill="#2494ec" fill-rule="evenodd"/>
<path d="M 579.016845703125 157.9112091064453" style="fill: rgb(84, 91, 108); fill-opacity: 1; stroke: rgb(0, 0, 0); stroke-opacity: 1; stroke-width: 0; paint-order: fill;"/>
<path d="M 1268.144287109375 354.8994445800781" style="fill: rgb(84, 91, 108); fill-opacity: 1; stroke: rgb(0, 0, 0); stroke-opacity: 1; stroke-width: 0; paint-order: fill;"/>
<path d="M 423.7018737792969 168.0740203857422" style="fill: rgb(36, 148, 236); fill-opacity: 1; stroke: rgb(0, 0, 0); stroke-opacity: 1; stroke-width: 0; paint-order: fill;"/>
</g>
</g>
</g>
<path id="path-1" d="M 479.013058 149.75156099999998 L 479.013058 189.75062099999997 L 479.013058 229.74967099999998 L 484.168368 234.81075099999998 L 535.902958 234.81075099999998 L 587.637548 234.81075099999998 L 593.087508 229.702161 L 593.087508 189.624611 C 593.087508 161.280501 593.6967014960937 150.1171690517578 593.6967014960937 150.1171690517578 L 589.2404779999999 145.17387099999996 L 536.4191979999999 145.17387099999996 L 483.59790799999996 145.17387099999996" fill="#2494ec" fill-rule="evenodd" transform="matrix(1.2394301891326904, 0, 0, 1.2394301891326904, 159.212158203125, 217.03092956542966)"/>
<path id="path-2" d="M 479.013058 149.75156099999998 L 479.013058 189.75062099999997 L 479.013058 229.74967099999998 L 484.168368 234.81075099999998 L 535.902958 234.81075099999998 L 587.637548 234.81075099999998 L 593.087508 229.702161 L 593.087508 189.624611 C 593.087508 161.280501 593.6967014960937 150.1171690517578 593.6967014960937 150.1171690517578 L 589.2404779999999 145.17387099999996 L 536.4191979999999 145.17387099999996 L 483.59790799999996 145.17387099999996" fill="#2494ec" fill-rule="evenodd" transform="matrix(1.2394301891326904, 0, 0, 1.2394301891326904, 325.4361877441407, 216.19694519042966)"/>
<path id="path-3" d="M 479.013058 149.75156099999998 L 479.013058 189.75062099999997 L 479.013058 229.74967099999998 L 484.168368 234.81075099999998 L 535.902958 234.81075099999998 L 587.637548 234.81075099999998 L 593.087508 229.702161 L 593.087508 189.624611 C 593.087508 161.280501 593.6967014960937 150.1171690517578 593.6967014960937 150.1171690517578 L 589.2404779999999 145.17387099999996 L 536.4191979999999 145.17387099999996 L 483.59790799999996 145.17387099999996" fill="#2494ec" fill-rule="evenodd" transform="matrix(1.2394301891326904, 0, 0, 1.2394301891326904, 327.385009765625, 87.63392639160156)"/>
<path id="path-4" d="M 479.013058 149.75156099999998 L 479.013058 189.75062099999997 L 479.013058 229.74967099999998 L 484.168368 234.81075099999998 L 535.902958 234.81075099999998 L 587.637548 234.81075099999998 L 593.087508 229.702161 L 593.087508 189.624611 C 593.087508 161.280501 593.6967014960937 150.1171690517578 593.6967014960937 150.1171690517578 L 589.2404779999999 145.17387099999996 L 536.4191979999999 145.17387099999996 L 483.59790799999996 145.17387099999996" fill="#2494ec" fill-rule="evenodd" transform="matrix(1.2394301891326904, 0, 0, 1.2394301891326904, 491.9371643066406, 215.17449951171875)"/>
<path id="path-5" d="M 479.013058 149.75156099999998 L 479.013058 189.75062099999997 L 479.013058 229.74967099999998 L 484.168368 234.81075099999998 L 535.902958 234.81075099999998 L 587.637548 234.81075099999998 L 593.087508 229.702161 L 593.087508 189.624611 C 593.087508 161.280501 593.6967014960937 150.1171690517578 593.6967014960937 150.1171690517578 L 589.2404779999999 145.17387099999996 L 536.4191979999999 145.17387099999996 L 483.59790799999996 145.17387099999996" fill="#2494ec" fill-rule="evenodd" transform="matrix(1.2394301891326904, 0, 0, 1.2394301891326904, 327.30090332031244, -43.53311157226563)"/>
<path d="M 968.369873046875 345.5941162109375 C 968.369873046875 345.5941162109375 968.369873046875 345.5941162109375 969.1893310546875 345.5941162109375" style="fill: rgb(36, 148, 236); fill-opacity: 1; stroke: rgb(0, 0, 0); stroke-opacity: 1; stroke-width: 0; paint-order: fill;"/>

</g>
<path id="path-6" d="M 345.636854 149.671514 C 343.69212400000004 149.671514 344.99332400000003 178.920424 347.103064 182.562334 C 348.25811400000003 184.557844 371.717484 233.09463399999999 372.181864 233.613134 C 372.851314 234.35887400000001 381.478854 234.513804 413.709554 234.350604 L 454.39335400000004 234.146094 L 456.91089400000004 231.563914 L 459.428444 228.98173400000002 L 459.46144400000003 189.09009400000002 L 459.49680400000005 149.20052400000003 L 456.91796400000004 146.66998400000003 L 454.34149400000007 144.13944400000003 L 403.2480740000001 143.99278400000003 C 375.14728400000007 143.91221400000003 351.34847400000007 144.13531400000002 350.3607840000001 144.49062400000003" fill="#2494ec" fill-rule="evenodd" transform="matrix(1.2394301891326904, 0, 0, 1.2394301891326904, 159.17967224121094, 88.08694458007812)"/>
<path d="M 423.7018737792969 168.0740203857422" style="fill: rgb(36, 148, 236); fill-opacity: 1; stroke: rgb(0, 0, 0); stroke-opacity: 1; stroke-width: 0; paint-order: fill;" transform="matrix(1.2394301891326904, 0, 0, 1.2394301891326904, -237.94554256725223, 349.49163342778667)"/>

<g transform="matrix(1.9542348384857178, 0, 0, 1.9542348384857178, -583.77099609375, 627.6624145507812)"><g id="g-3" transform="matrix(1, 0, 0, 1, 0, 0)">
    <g id="g-4">
        <path class="st0" d="M652,46c27.6,0,50,22.4,50,50s-22.4,50-50,50s-50-22.4-50-50S624.4,46,652,46z" style="fill: rgb(84, 91, 108);"/>
    </g>
</g></g>
<g transform="matrix(1.9542348384857178, 0, 0, 1.9542348384857178, -260.03210449218744, 626.395751953125)"><g id="g-5" transform="matrix(1, 0, 0, 1, 0, 1.0234183813798836)">
    <g id="g-6">
        <path class="st0" d="M652,46c27.6,0,50,22.4,50,50s-22.4,50-50,50s-50-22.4-50-50S624.4,46,652,46z" style="fill: rgb(84, 91, 108);"/>
    </g>
</g></g>
</svg>